<?xml version="1.0" encoding="UTF-8" standalone="no"?>
<svg
   xmlns:dc="http://purl.org/dc/elements/1.1/"
   xmlns:cc="http://creativecommons.org/ns#"
   xmlns:rdf="http://www.w3.org/1999/02/22-rdf-syntax-ns#"
   xmlns:svg="http://www.w3.org/2000/svg"
   xmlns="http://www.w3.org/2000/svg"
   xmlns:sodipodi="http://sodipodi.sourceforge.net/DTD/sodipodi-0.dtd"
   xmlns:inkscape="http://www.inkscape.org/namespaces/inkscape"
   enable-background="new 0 0 566.929 98.437"
   height="103.2226"
   viewBox="0 0 621.40458 103.2226"
   width="621.4046"
   version="1.1"
   id="svg1736"
   sodipodi:docname="all.svg"
   inkscape:version="0.92.3 (2405546, 2018-03-11)">
  <metadata
     id="metadata1742">
    <rdf:RDF>
      <cc:Work
         rdf:about="">
        <dc:format>image/svg+xml</dc:format>
        <dc:type
           rdf:resource="http://purl.org/dc/dcmitype/StillImage" />
        <dc:title></dc:title>
      </cc:Work>
    </rdf:RDF>
  </metadata>
  <defs
     id="defs1740" />
  <sodipodi:namedview
     pagecolor="#ffa5ff"
     bordercolor="#666666"
     borderopacity="1"
     objecttolerance="10"
     gridtolerance="10"
     guidetolerance="10"
     inkscape:pageopacity="0"
     inkscape:pageshadow="2"
     inkscape:window-width="1878"
     inkscape:window-height="1080"
     id="namedview1738"
     showgrid="false"
     fit-margin-top="0"
     fit-margin-left="0"
     fit-margin-right="0"
     fit-margin-bottom="0"
     inkscape:zoom="1.6763148"
     inkscape:cx="310.81496"
     inkscape:cy="48.926182"
     inkscape:window-x="42"
     inkscape:window-y="-29"
     inkscape:window-maximized="1"
     inkscape:current-layer="svg1736" />
  <g
     aria-label="¡Everything!"
     transform="matrix(0.93224387,0,0,1.0726807,-100.47425,1.8598642)"
     style="font-style:normal;font-variant:normal;font-weight:normal;font-stretch:normal;font-size:98.6367569px;line-height:97.86009979px;font-family:Ubuntu;-inkscape-font-specification:Ubuntu;letter-spacing:0px;word-spacing:0px;fill:#ffffff;fill-opacity:1;stroke:none;stroke-width:3.69887853"
     id="text2289">
    <path
       d="M 107.77679,91.171575 V 63.574474 l 2.45629,-20.131916 H 122.659 l 2.45629,20.131916 v 27.597101 z m 0,-54.760739 V 19.264994 h 17.3385 v 17.145842 z"
       style="font-style:normal;font-variant:normal;font-weight:bold;font-stretch:normal;font-family:sans-serif;-inkscape-font-specification:'sans-serif Bold';fill:#ffffff;fill-opacity:1;stroke-width:3.69887853"
       id="path2471"
       inkscape:connector-curvature="0" />
    <path
       d="m 148.08879,1.3003891 h 50.04082 V 15.315671 H 166.63134 V 28.70484 h 29.61993 v 14.015281 h -29.61993 v 16.471568 h 32.55784 V 73.20697 h -51.10039 z"
       style="font-style:normal;font-variant:normal;font-weight:bold;font-stretch:normal;font-family:sans-serif;-inkscape-font-specification:'sans-serif Bold';fill:#ffffff;fill-opacity:1;stroke-width:3.69887853"
       id="path2473"
       inkscape:connector-curvature="0" />
    <path
       d="m 207.95475,19.264994 h 17.24217 l 13.43733,37.277758 13.38917,-37.277758 h 17.29033 L 248.0741,73.20697 h -18.92786 z"
       style="font-style:normal;font-variant:normal;font-weight:bold;font-stretch:normal;font-family:sans-serif;-inkscape-font-specification:'sans-serif Bold';fill:#ffffff;fill-opacity:1;stroke-width:3.69887853"
       id="path2475"
       inkscape:connector-curvature="0" />
    <path
       d="m 332.93638,46.091495 v 4.912572 h -40.312 q 0.62611,6.068473 4.38279,9.102709 3.75667,3.034236 10.49942,3.034236 5.44236,0 11.12553,-1.589362 5.73133,-1.637524 11.75164,-4.912573 v 13.292845 q -6.11663,2.311799 -12.23327,3.467698 -6.11663,1.204062 -12.23326,1.204062 -14.6414,0 -22.78086,-7.417022 -8.09129,-7.465184 -8.09129,-20.902516 0,-13.196519 7.94681,-20.758028 7.99497,-7.561509 21.96209,-7.561509 12.71489,0 20.32456,7.657834 7.65784,7.657834 7.65784,20.469054 z m -17.7238,-5.731335 q 0,-4.912573 -2.88975,-7.898647 -2.84158,-3.034236 -7.46518,-3.034236 -5.0089,0 -8.13946,2.841586 -3.13056,2.793424 -3.90116,8.091297 z"
       style="font-style:normal;font-variant:normal;font-weight:bold;font-stretch:normal;font-family:sans-serif;-inkscape-font-specification:'sans-serif Bold';fill:#ffffff;fill-opacity:1;stroke-width:3.69887853"
       id="path2477"
       inkscape:connector-curvature="0" />
    <path
       d="m 386.01142,33.95455 q -2.26363,-1.059575 -4.52727,-1.541199 -2.21547,-0.529788 -4.47911,-0.529788 -6.64642,0 -10.25861,4.286461 -3.56402,4.238298 -3.56402,12.185107 V 73.20697 H 345.94024 V 19.264994 h 17.24217 v 8.861896 q 3.32321,-5.297873 7.60967,-7.705997 4.33462,-2.456286 10.35493,-2.456286 0.86693,0 1.87834,0.09633 1.01141,0.04816 2.93791,0.288975 z"
       style="font-style:normal;font-variant:normal;font-weight:bold;font-stretch:normal;font-family:sans-serif;-inkscape-font-specification:'sans-serif Bold';fill:#ffffff;fill-opacity:1;stroke-width:3.69887853"
       id="path2479"
       inkscape:connector-curvature="0" />
    <path
       d="m 387.60079,19.264994 h 17.24217 l 14.4969,36.603484 12.3296,-36.603484 h 17.24217 L 426.2271,78.312193 q -3.41954,9.006384 -7.99497,12.570407 -4.52728,3.612186 -11.99246,3.612186 h -9.96963 V 83.176603 h 5.39419 q 4.38279,0 6.35745,-1.396712 2.02283,-1.396711 3.13056,-5.008897 l 0.48163,-1.493037 z"
       style="font-style:normal;font-variant:normal;font-weight:bold;font-stretch:normal;font-family:sans-serif;-inkscape-font-specification:'sans-serif Bold';fill:#ffffff;fill-opacity:1;stroke-width:3.69887853"
       id="path2481"
       inkscape:connector-curvature="0" />
    <path
       d="M 477.85727,3.9493255 V 19.264994 h 17.77195 v 12.329594 h -17.77195 v 22.877178 q 0,3.756673 1.49303,5.105223 1.49304,1.300387 5.92399,1.300387 h 8.86189 V 73.20697 H 479.3503 q -10.21044,0 -14.4969,-4.238298 -4.2383,-4.286461 -4.2383,-14.496906 V 31.594588 h -8.57292 V 19.264994 h 8.57292 V 3.9493255 Z"
       style="font-style:normal;font-variant:normal;font-weight:bold;font-stretch:normal;font-family:sans-serif;-inkscape-font-specification:'sans-serif Bold';fill:#ffffff;fill-opacity:1;stroke-width:3.69887853"
       id="path2483"
       inkscape:connector-curvature="0" />
    <path
       d="M 560.45594,40.36016 V 73.20697 H 543.11745 V 67.860935 48.162481 q 0,-7.079884 -0.33714,-9.728821 -0.28898,-2.648936 -1.05958,-3.90116 -1.01141,-1.685687 -2.74526,-2.600774 -1.73385,-0.96325 -3.94932,-0.96325 -5.3942,0 -8.4766,4.190136 -3.0824,4.141973 -3.0824,11.510832 V 73.20697 H 506.22499 V -1.733847 h 17.24216 V 27.16364 q 3.90116,-4.719923 8.28395,-6.935397 4.38279,-2.263636 9.68066,-2.263636 9.34352,0 14.15977,5.731335 4.86441,5.731335 4.86441,16.664218 z"
       style="font-style:normal;font-variant:normal;font-weight:bold;font-stretch:normal;font-family:sans-serif;-inkscape-font-specification:'sans-serif Bold';fill:#ffffff;fill-opacity:1;stroke-width:3.69887853"
       id="path2485"
       inkscape:connector-curvature="0" />
    <path
       d="m 576.54219,19.264994 h 17.24216 V 73.20697 h -17.24216 z m 0,-20.998841 h 17.24216 v 14.063444 h -17.24216 z"
       style="font-style:normal;font-variant:normal;font-weight:bold;font-stretch:normal;font-family:sans-serif;-inkscape-font-specification:'sans-serif Bold';fill:#ffffff;fill-opacity:1;stroke-width:3.69887853"
       id="path2487"
       inkscape:connector-curvature="0" />
    <path
       d="M 664.67954,40.36016 V 73.20697 H 647.34105 V 67.860935 48.066156 q 0,-6.983559 -0.33714,-9.632496 -0.28897,-2.648936 -1.05957,-3.90116 -1.01142,-1.685687 -2.74527,-2.600774 -1.73384,-0.96325 -3.94932,-0.96325 -5.3942,0 -8.4766,4.190136 -3.08239,4.141973 -3.08239,11.510832 V 73.20697 H 610.44859 V 19.264994 h 17.24217 v 7.898646 q 3.90116,-4.719923 8.28394,-6.935397 4.38279,-2.263636 9.68066,-2.263636 9.34352,0 14.15977,5.731335 4.86441,5.731335 4.86441,16.664218 z"
       style="font-style:normal;font-variant:normal;font-weight:bold;font-stretch:normal;font-family:sans-serif;-inkscape-font-specification:'sans-serif Bold';fill:#ffffff;fill-opacity:1;stroke-width:3.69887853"
       id="path2489"
       inkscape:connector-curvature="0" />
    <path
       d="m 717.46563,64.056099 q -3.56403,4.719923 -7.85049,6.935397 -4.28646,2.215474 -9.92147,2.215474 -9.87331,0 -16.32708,-7.754159 -6.45377,-7.802321 -6.45377,-19.842941 0,-12.088782 6.45377,-19.794779 6.45377,-7.754159 16.32708,-7.754159 5.63501,0 9.92147,2.215474 4.28646,2.215474 7.85049,6.983559 v -7.994971 h 17.33849 V 67.76461 q 0,13.003869 -8.23578,19.842941 -8.18762,6.887235 -23.79227,6.887235 -5.05706,0 -9.77698,-0.7706 -4.71992,-0.770599 -9.48801,-2.359961 V 77.926893 q 4.52727,2.600774 8.8619,3.852998 4.33462,1.300387 8.71741,1.300387 8.47659,0 12.42591,-3.70851 3.94933,-3.708511 3.94933,-11.607158 z M 706.09928,30.486851 q -5.34603,0 -8.33211,3.949324 -2.98607,3.949323 -2.98607,11.173695 0,7.417022 2.88975,11.27002 2.88975,3.804836 8.42843,3.804836 5.3942,0 8.38027,-3.949324 2.98608,-3.949323 2.98608,-11.125532 0,-7.224372 -2.98608,-11.173695 -2.98607,-3.949324 -8.38027,-3.949324 z"
       style="font-style:normal;font-variant:normal;font-weight:bold;font-stretch:normal;font-family:sans-serif;-inkscape-font-specification:'sans-serif Bold';fill:#ffffff;fill-opacity:1;stroke-width:3.69887853"
       id="path2491"
       inkscape:connector-curvature="0" />
    <path
       d="m 757.00702,1.3003891 h 17.33849 V 28.89749 l -2.45629,20.131916 H 759.46331 L 757.00702,28.89749 Z m 0,54.7607389 h 17.33849 V 73.20697 h -17.33849 z"
       style="font-style:normal;font-variant:normal;font-weight:bold;font-stretch:normal;font-family:sans-serif;-inkscape-font-specification:'sans-serif Bold';fill:#ffffff;fill-opacity:1;stroke-width:3.69887853"
       id="path2493"
       inkscape:connector-curvature="0" />
  </g>
</svg>
