<?xml version="1.0" encoding="UTF-8" standalone="no"?>
<svg
   xmlns:dc="http://purl.org/dc/elements/1.1/"
   xmlns:cc="http://creativecommons.org/ns#"
   xmlns:rdf="http://www.w3.org/1999/02/22-rdf-syntax-ns#"
   xmlns:svg="http://www.w3.org/2000/svg"
   xmlns="http://www.w3.org/2000/svg"
   xmlns:sodipodi="http://sodipodi.sourceforge.net/DTD/sodipodi-0.dtd"
   xmlns:inkscape="http://www.inkscape.org/namespaces/inkscape"
   enable-background="new 0 0 566.929 98.437"
   height="101.48898"
   viewBox="0 0 580.52134 101.48897"
   width="580.52136"
   version="1.1"
   id="svg1736"
   sodipodi:docname="last.svg"
   inkscape:version="0.92.3 (2405546, 2018-03-11)">
  <metadata
     id="metadata1742">
    <rdf:RDF>
      <cc:Work
         rdf:about="">
        <dc:format>image/svg+xml</dc:format>
        <dc:type
           rdf:resource="http://purl.org/dc/dcmitype/StillImage" />
        <dc:title></dc:title>
      </cc:Work>
    </rdf:RDF>
  </metadata>
  <defs
     id="defs1740" />
  <sodipodi:namedview
     pagecolor="#ffa5ff"
     bordercolor="#666666"
     borderopacity="1"
     objecttolerance="10"
     gridtolerance="10"
     guidetolerance="10"
     inkscape:pageopacity="0"
     inkscape:pageshadow="2"
     inkscape:window-width="1878"
     inkscape:window-height="1080"
     id="namedview1738"
     showgrid="false"
     fit-margin-top="0"
     fit-margin-left="0"
     fit-margin-right="0"
     fit-margin-bottom="0"
     inkscape:zoom="0.2963334"
     inkscape:cx="-874.35627"
     inkscape:cy="265.04729"
     inkscape:window-x="36"
     inkscape:window-y="-29"
     inkscape:window-maximized="1"
     inkscape:current-layer="svg1736" />
  <g
     aria-label="Last played"
     transform="matrix(0.94044314,0,0,1.0633285,-95.509205,5.4335841)"
     style="font-style:italic;font-variant:normal;font-weight:500;font-stretch:normal;font-size:97.83311462px;line-height:97.06278229px;font-family:Ubuntu;-inkscape-font-specification:'Ubuntu Medium Italic';letter-spacing:0px;word-spacing:0px;fill:#ffffff;fill-opacity:1;stroke:none;stroke-width:3.66874218"
     id="text827">
    <path
       d="m 101.55766,-2.1004621 h 18.39147 V 55.319169 h 32.29258 v 13.901092 h -50.68405 z"
       style="font-style:normal;font-variant:normal;font-weight:bold;font-stretch:normal;font-family:sans-serif;-inkscape-font-specification:'sans-serif Bold';fill:#ffffff;stroke-width:3.66874218"
       id="path1182"
       inkscape:connector-curvature="0" />
    <path
       d="m 187.06609,45.144143 q -5.35025,0 -8.07314,1.815262 -2.67513,1.815263 -2.67513,5.350249 0,3.248365 2.14966,5.111398 2.19742,1.815263 6.0668,1.815263 4.82478,0 8.12091,-3.439446 3.29614,-3.487215 3.29614,-8.694153 v -1.958573 z m 26.13023,-6.448961 v 30.525079 h -17.24499 v -7.929833 q -3.43945,4.872548 -7.73876,7.117741 -4.2993,2.197424 -10.46164,2.197424 -8.312,0 -13.51893,-4.824778 -5.15917,-4.872548 -5.15917,-12.6113 0,-9.410705 6.44896,-13.805552 6.49673,-4.394847 20.35005,-4.394847 h 10.07949 v -1.337562 q 0,-4.060456 -3.2006,-5.923489 -3.20059,-1.910803 -9.98395,-1.910803 -5.49355,0 -10.22279,1.098712 -4.72924,1.098711 -8.7897,3.296135 V 17.150878 q 5.49356,-1.337562 11.03489,-2.006343 5.54133,-0.716551 11.08266,-0.716551 14.47433,0 20.87552,5.732409 6.44896,5.684639 6.44896,18.534789 z"
       style="font-style:normal;font-variant:normal;font-weight:bold;font-stretch:normal;font-family:sans-serif;-inkscape-font-specification:'sans-serif Bold';fill:#ffffff;stroke-width:3.66874218"
       id="path1184"
       inkscape:connector-curvature="0" />
    <path
       d="m 270.99811,17.389729 v 12.99346 q -5.49356,-2.292963 -10.60496,-3.439445 -5.11139,-1.146482 -9.64955,-1.146482 -4.87255,0 -7.26105,1.242022 -2.34074,1.194252 -2.34074,3.726066 0,2.054113 1.7675,3.152825 1.81526,1.098712 6.44896,1.624182 l 3.00951,0.429931 q 13.13677,1.671953 17.67493,5.493559 4.53816,3.821606 4.53816,11.990289 0,8.550843 -6.30565,12.85015 -6.30565,4.299307 -18.82141,4.299307 -5.30248,0 -10.98712,-0.859862 -5.63687,-0.812091 -11.60813,-2.484043 V 54.268227 q 5.1114,2.484044 10.46165,3.726066 5.39802,1.242022 10.93934,1.242022 5.01586,0 7.54768,-1.385332 2.53181,-1.385333 2.53181,-4.108227 0,-2.292963 -1.76749,-3.391675 -1.71972,-1.146482 -6.92666,-1.767493 l -3.00952,-0.382161 q -11.41705,-1.433102 -16.00297,-5.302478 -4.58593,-3.869376 -4.58593,-11.751439 0,-8.503073 5.82795,-12.611299 5.82795,-4.108227 17.86601,-4.108227 4.72923,0 9.93617,0.716551 5.20694,0.716551 11.32151,2.245194 z"
       style="font-style:normal;font-variant:normal;font-weight:bold;font-stretch:normal;font-family:sans-serif;-inkscape-font-specification:'sans-serif Bold';fill:#ffffff;stroke-width:3.66874218"
       id="path1186"
       inkscape:connector-curvature="0" />
    <path
       d="M 306.15689,0.52689205 V 15.717776 h 17.62716 v 12.229139 h -17.62716 v 22.690786 q 0,3.726066 1.48087,5.063628 1.48087,1.289792 5.87572,1.289792 h 8.78969 v 12.22914 h -14.66541 q -10.12725,0 -14.37879,-4.203767 -4.20377,-4.251537 -4.20377,-14.378793 V 27.946915 h -8.50307 V 15.717776 h 8.50307 V 0.52689205 Z"
       style="font-style:normal;font-variant:normal;font-weight:bold;font-stretch:normal;font-family:sans-serif;-inkscape-font-specification:'sans-serif Bold';fill:#ffffff;stroke-width:3.66874218"
       id="path1188"
       inkscape:connector-curvature="0" />
    <path
       d="M 385.40744,61.481508 V 89.570313 H 368.30576 V 15.717776 h 17.10168 v 7.834292 q 3.53499,-4.681467 7.83429,-6.87889 4.29931,-2.245194 9.88841,-2.245194 9.88841,0 16.24183,7.882062 6.35342,7.834293 6.35342,20.206742 0,12.37245 -6.35342,20.254512 -6.35342,7.834293 -16.24183,7.834293 -5.5891,0 -9.88841,-2.197424 -4.2993,-2.245193 -7.83429,-6.926661 z m 11.36928,-34.633304 q -5.49356,0 -8.4553,4.060456 -2.91398,4.012686 -2.91398,11.608128 0,7.595442 2.91398,11.655899 2.96174,4.012686 8.4553,4.012686 5.49356,0 8.35976,-4.012686 2.91398,-4.012687 2.91398,-11.655899 0,-7.643212 -2.91398,-11.655898 -2.8662,-4.012686 -8.35976,-4.012686 z"
       style="font-style:normal;font-variant:normal;font-weight:bold;font-stretch:normal;font-family:sans-serif;-inkscape-font-specification:'sans-serif Bold';fill:#ffffff;stroke-width:3.66874218"
       id="path1190"
       inkscape:connector-curvature="0" />
    <path
       d="m 438.43222,-5.1099769 h 17.10169 V 69.220261 h -17.10169 z"
       style="font-style:normal;font-variant:normal;font-weight:bold;font-stretch:normal;font-family:sans-serif;-inkscape-font-specification:'sans-serif Bold';fill:#ffffff;stroke-width:3.66874218"
       id="path1192"
       inkscape:connector-curvature="0" />
    <path
       d="m 496.04296,45.144143 q -5.35025,0 -8.07315,1.815262 -2.67512,1.815263 -2.67512,5.350249 0,3.248365 2.14965,5.111398 2.19743,1.815263 6.0668,1.815263 4.82478,0 8.12091,-3.439446 3.29614,-3.487215 3.29614,-8.694153 v -1.958573 z m 26.13023,-6.448961 v 30.525079 h -17.245 v -7.929833 q -3.43945,4.872548 -7.73875,7.117741 -4.29931,2.197424 -10.46165,2.197424 -8.31199,0 -13.51893,-4.824778 -5.15917,-4.872548 -5.15917,-12.6113 0,-9.410705 6.44896,-13.805552 6.49673,-4.394847 20.35005,-4.394847 h 10.07949 v -1.337562 q 0,-4.060456 -3.2006,-5.923489 -3.20059,-1.910803 -9.98394,-1.910803 -5.49356,0 -10.2228,1.098712 -4.72924,1.098711 -8.78969,3.296135 V 17.150878 q 5.49356,-1.337562 11.03489,-2.006343 5.54132,-0.716551 11.08265,-0.716551 14.47434,0 20.87553,5.732409 6.44896,5.684639 6.44896,18.534789 z"
       style="font-style:normal;font-variant:normal;font-weight:bold;font-stretch:normal;font-family:sans-serif;-inkscape-font-specification:'sans-serif Bold';fill:#ffffff;stroke-width:3.66874218"
       id="path1194"
       inkscape:connector-curvature="0" />
    <path
       d="m 528.09666,15.717776 h 17.10169 l 14.37879,36.305257 12.22914,-36.305257 h 17.10169 l -22.49971,58.566113 q -3.39167,8.933004 -7.92983,12.467989 -4.49038,3.582756 -11.89475,3.582756 h -9.8884 V 79.108666 h 5.35025 q 4.34707,0 6.30565,-1.385332 2.00634,-1.385332 3.10505,-4.968088 l 0.4777,-1.480872 z"
       style="font-style:normal;font-variant:normal;font-weight:bold;font-stretch:normal;font-family:sans-serif;-inkscape-font-specification:'sans-serif Bold';fill:#ffffff;stroke-width:3.66874218"
       id="path1196"
       inkscape:connector-curvature="0" />
    <path
       d="m 652.34664,42.325708 v 4.872548 h -39.98355 q 0.62101,6.019029 4.34707,9.028544 3.72607,3.009515 10.41388,3.009515 5.39802,0 11.03489,-1.576413 5.68464,-1.624182 11.6559,-4.872547 v 13.18454 q -6.0668,2.292964 -12.1336,3.439446 -6.0668,1.194252 -12.1336,1.194252 -14.5221,0 -22.59525,-7.356592 -8.02537,-7.404362 -8.02537,-20.732213 0,-13.089 7.88206,-20.588902 7.92984,-7.499902 21.78316,-7.499902 12.6113,0 20.15897,7.595442 7.59544,7.595442 7.59544,20.302282 z m -17.57939,-5.684639 q 0,-4.872548 -2.8662,-7.834292 -2.81844,-3.009515 -7.40436,-3.009515 -4.96809,0 -8.07315,2.818434 -3.10505,2.770665 -3.86937,8.025373 z"
       style="font-style:normal;font-variant:normal;font-weight:bold;font-stretch:normal;font-family:sans-serif;-inkscape-font-specification:'sans-serif Bold';fill:#ffffff;stroke-width:3.66874218"
       id="path1198"
       inkscape:connector-curvature="0" />
    <path
       d="M 701.64536,23.552068 V -5.1099769 h 17.19723 V 69.220261 h -17.19723 v -7.738753 q -3.53498,4.729238 -7.78652,6.926661 -4.25153,2.197424 -9.84063,2.197424 -9.88841,0 -16.24183,-7.834293 -6.35342,-7.882062 -6.35342,-20.254512 0,-12.372449 6.35342,-20.206742 6.35342,-7.882062 16.24183,-7.882062 5.54133,0 9.79286,2.245194 4.29931,2.197423 7.83429,6.87889 z m -11.27373,34.633305 q 5.49356,0 8.35976,-4.012686 2.91397,-4.012687 2.91397,-11.655899 0,-7.643212 -2.91397,-11.655898 -2.8662,-4.012686 -8.35976,-4.012686 -5.44579,0 -8.35977,4.012686 -2.8662,4.012686 -2.8662,11.655898 0,7.643212 2.8662,11.655899 2.91398,4.012686 8.35977,4.012686 z"
       style="font-style:normal;font-variant:normal;font-weight:bold;font-stretch:normal;font-family:sans-serif;-inkscape-font-specification:'sans-serif Bold';fill:#ffffff;stroke-width:3.66874218"
       id="path1200"
       inkscape:connector-curvature="0" />
  </g>
</svg>
